<?xml version="1.0" standalone="no"?>
<!DOCTYPE svg PUBLIC "-//W3C//DTD SVG 20010904//EN"
 "http://www.w3.org/TR/2001/REC-SVG-20010904/DTD/svg10.dtd">
<svg version="1.0" xmlns="http://www.w3.org/2000/svg"
 width="700.000000pt" height="700.000000pt" viewBox="0 0 700.000000 700.000000"
 preserveAspectRatio="xMidYMid meet">
<metadata>
Created by potrace 1.11, written by Peter Selinger 2001-2013
</metadata>
<g transform="translate(0.000000,700.000000) scale(0.100000,-0.100000)"
fill="#000000" stroke="none">
<path d="M2223 6985 c-461 -84 -812 -468 -852 -933 -15 -178 16 -369 88 -527
51 -112 120 -207 225 -310 116 -114 217 -179 358 -232 160 -60 208 -66 541
-64 l297 2 0 -305 0 -306 -612 -2 -613 -3 -3 -202 -2 -203 -175 0 -174 0 -20
46 c-12 26 -41 75 -66 110 -180 252 -534 324 -806 164 -134 -79 -258 -250
-288 -398 -16 -75 -14 -208 4 -277 42 -167 167 -325 312 -395 l72 -35 0 -475
1 -475 -103 -49 c-90 -43 -112 -59 -193 -140 -99 -100 -145 -176 -186 -306
-33 -108 -33 -292 0 -400 32 -102 87 -203 142 -262 l45 -49 168 169 169 169
-26 38 c-71 104 -54 230 43 318 48 43 107 61 177 54 82 -8 151 -56 191 -131
35 -64 21 -190 -29 -259 -11 -15 7 -37 158 -188 l171 -170 52 67 c189 245 203
574 36 835 -78 122 -191 215 -329 274 l-66 28 0 473 0 473 73 37 c96 50 219
173 266 267 l34 67 173 0 174 0 0 -1740 0 -1740 1850 0 1850 0 0 1740 0 1740
174 0 173 0 31 -62 c57 -115 169 -226 286 -283 l56 -27 0 -473 0 -472 -47 -18
c-214 -78 -387 -270 -444 -493 -24 -93 -25 -259 -3 -352 20 -85 81 -210 140
-284 l46 -59 172 172 c150 150 169 173 159 188 -41 58 -48 80 -48 154 0 67 3
81 30 125 19 30 49 60 79 79 43 26 59 30 120 30 77 -1 118 -16 169 -64 82 -75
95 -207 30 -305 l-25 -39 168 -169 169 -169 47 52 c57 62 108 158 140 259 33
108 33 292 0 400 -41 130 -87 206 -187 307 -81 80 -104 97 -193 140 l-102 48
1 475 0 475 72 34 c141 68 269 228 312 391 19 71 19 230 0 303 -53 202 -206
365 -406 433 -279 94 -600 -36 -734 -298 l-40 -78 -172 0 -173 0 0 205 0 205
-615 0 -615 0 0 306 0 305 298 -2 c316 -3 346 0 497 48 153 49 274 123 401
245 364 350 422 903 139 1333 -52 79 -194 221 -274 275 -87 58 -229 123 -331
151 l-85 24 -1235 2 c-982 1 -1250 -1 -1307 -12z m427 -185 c233 -67 436 -238
540 -455 75 -156 85 -203 84 -390 0 -148 -2 -167 -28 -245 -81 -246 -234 -425
-451 -530 -136 -66 -195 -81 -355 -87 -115 -4 -148 -2 -224 16 -301 72 -539
288 -636 579 -29 84 -34 114 -38 228 -3 78 0 158 7 198 60 343 332 623 681
701 97 22 322 14 420 -15z m2102 16 c273 -53 499 -225 618 -471 73 -150 85
-202 85 -385 0 -183 -12 -235 -85 -385 -55 -114 -130 -210 -228 -291 -75 -62
-233 -143 -332 -171 -51 -14 -100 -18 -225 -17 -147 0 -167 3 -245 28 -322
106 -539 349 -606 676 -33 167 -3 393 73 543 126 250 359 426 628 476 77 14
235 12 317 -3z"/>
<path d="M2320 6389 c-127 -25 -249 -123 -309 -248 -34 -73 -36 -81 -35 -181
0 -84 4 -116 22 -160 44 -110 141 -208 252 -252 44 -18 75 -23 160 -23 101 0
108 2 182 37 284 135 344 497 119 712 -109 104 -245 144 -391 115z"/>
<path d="M4481 6384 c-305 -82 -430 -447 -238 -693 147 -190 423 -227 612 -83
147 111 210 304 156 480 -67 223 -306 356 -530 296z"/>
</g>
</svg>
